<?xml version="1.0" encoding="UTF-8" standalone="no"?>
<!-- Created with Inkscape (http://www.inkscape.org/) -->

<svg
   width="64"
   height="64"
   viewBox="0 0 16.933333 16.933333"
   version="1.1"
   id="svg1"
   inkscape:version="1.4.3 (0d15f75042, 2025-12-25)"
   sodipodi:docname="signalfi_icon.svg"
   xmlns:inkscape="http://www.inkscape.org/namespaces/inkscape"
   xmlns:sodipodi="http://sodipodi.sourceforge.net/DTD/sodipodi-0.dtd"
   xmlns="http://www.w3.org/2000/svg"
   xmlns:svg="http://www.w3.org/2000/svg">
  <sodipodi:namedview
     id="namedview1"
     pagecolor="#ffffff"
     bordercolor="#000000"
     borderopacity="0.25"
     inkscape:showpageshadow="2"
     inkscape:pageopacity="0.0"
     inkscape:pagecheckerboard="0"
     inkscape:deskcolor="#d1d1d1"
     inkscape:document-units="px"
     showgrid="true"
     inkscape:zoom="19.280842"
     inkscape:cx="36.512929"
     inkscape:cy="27.669954"
     inkscape:window-width="3770"
     inkscape:window-height="2096"
     inkscape:window-x="70"
     inkscape:window-y="27"
     inkscape:window-maximized="1"
     inkscape:current-layer="layer2">
    <inkscape:grid
       id="grid1"
       units="px"
       originx="0"
       originy="0"
       spacingx="0.26458333"
       spacingy="0.26458333"
       empcolor="#0099e5"
       empopacity="0.30196078"
       color="#0099e5"
       opacity="0.14901961"
       empspacing="8"
       enabled="true"
       visible="true" />
  </sodipodi:namedview>
  <defs
     id="defs1">
    <inkscape:path-effect
       effect="fillet_chamfer"
       id="path-effect5"
       is_visible="true"
       lpeversion="1"
       nodesatellites_param="F,0,0,1,0,0.52916666,0,1 @ F,0,0,1,0,0.52916666,0,1 @ F,0,0,1,0,0.52916666,0,1 @ F,0,0,1,0,0.52916666,0,1"
       radius="2"
       unit="px"
       method="auto"
       mode="F"
       chamfer_steps="1"
       flexible="false"
       use_knot_distance="true"
       apply_no_radius="true"
       apply_with_radius="true"
       only_selected="false"
       hide_knots="false" />
    <inkscape:path-effect
       effect="fillet_chamfer"
       id="path-effect4"
       is_visible="true"
       lpeversion="1"
       nodesatellites_param="F,0,0,1,0,0.52916666,0,1 @ F,0,0,1,0,0.52916666,0,1 @ F,0,0,1,0,0.52916666,0,1 @ F,0,0,1,0,0.52916666,0,1"
       radius="2"
       unit="px"
       method="auto"
       mode="F"
       chamfer_steps="1"
       flexible="false"
       use_knot_distance="true"
       apply_no_radius="true"
       apply_with_radius="true"
       only_selected="false"
       hide_knots="false" />
    <inkscape:path-effect
       effect="fillet_chamfer"
       id="path-effect3"
       is_visible="true"
       lpeversion="1"
       nodesatellites_param="F,0,0,1,0,0.52916666,0,1 @ F,0,0,1,0,0.52916666,0,1 @ F,0,0,1,0,0.52916666,0,1 @ F,0,0,1,0,0.52916666,0,1"
       radius="2"
       unit="px"
       method="auto"
       mode="F"
       chamfer_steps="1"
       flexible="false"
       use_knot_distance="true"
       apply_no_radius="true"
       apply_with_radius="true"
       only_selected="false"
       hide_knots="false" />
    <inkscape:path-effect
       effect="fillet_chamfer"
       id="path-effect2"
       is_visible="true"
       lpeversion="1"
       nodesatellites_param="F,0,0,1,0,0.52916666,0,1 @ F,0,0,1,0,0.52916666,0,1 @ F,0,0,1,0,0.52916666,0,1 @ F,0,0,1,0,0.52916666,0,1"
       radius="2"
       unit="px"
       method="auto"
       mode="F"
       chamfer_steps="1"
       flexible="false"
       use_knot_distance="true"
       apply_no_radius="true"
       apply_with_radius="true"
       only_selected="false"
       hide_knots="false" />
    <inkscape:path-effect
       effect="fillet_chamfer"
       id="path-effect1"
       is_visible="true"
       lpeversion="1"
       nodesatellites_param="F,0,0,1,0,3.1749999,0,1 @ F,0,0,1,0,3.1749999,0,1 @ F,0,0,1,0,3.1749999,0,1 @ F,0,0,1,0,3.1749999,0,1"
       radius="12"
       unit="px"
       method="auto"
       mode="F"
       chamfer_steps="1"
       flexible="false"
       use_knot_distance="true"
       apply_no_radius="true"
       apply_with_radius="true"
       only_selected="false"
       hide_knots="false" />
    <inkscape:path-effect
       effect="fillet_chamfer"
       id="path-effect1-7"
       is_visible="true"
       lpeversion="1"
       nodesatellites_param="F,0,0,1,0,3.1749999,0,1 @ F,0,0,1,0,3.1749999,0,1 @ F,0,0,1,0,3.1749999,0,1 @ F,0,0,1,0,3.1749999,0,1"
       radius="12"
       unit="px"
       method="auto"
       mode="F"
       chamfer_steps="1"
       flexible="false"
       use_knot_distance="true"
       apply_no_radius="true"
       apply_with_radius="true"
       only_selected="false"
       hide_knots="false" />
  </defs>
  <g
     inkscape:label="Layer 1"
     inkscape:groupmode="layer"
     id="layer1"
     style="display:inline"
     sodipodi:insensitive="true">
    <path
      style="fill:#0eb8c0;fill-opacity:1;stroke:none;stroke-width:1;stroke-dasharray:none;stroke-opacity:1"
       id="rect1"
       width="16.933332"
       height="16.933332"
       x="0"
       y="0"
       rx="0"
       inkscape:path-effect="#path-effect1"
       sodipodi:type="rect"
       ry="0"
       d="M 3.1749999,0 H 13.758333 a 3.1749999,3.1749999 45 0 1 3.174999,3.1749999 V 13.758333 a 3.1749999,3.1749999 135 0 1 -3.174999,3.174999 H 3.1749999 A 3.1749999,3.1749999 45 0 1 0,13.758333 V 3.1749999 A 3.1749999,3.1749999 135 0 1 3.1749999,0 Z"
       transform="matrix(0.99843929,0,0,1.0034802,0.01321426,-0.02710968)" />
    <path
      style="fill:#0a1c1e;fill-opacity:1;stroke:none;stroke-width:1;stroke-dasharray:none;stroke-opacity:1"
       id="rect1-5"
       width="16.933332"
       height="16.933332"
       x="0"
       y="0"
       rx="0"
       inkscape:path-effect="#path-effect1-7"
       sodipodi:type="rect"
       ry="0"
       d="M 3.1749999,0 H 13.758333 a 3.1749999,3.1749999 45 0 1 3.174999,3.1749999 V 13.758333 a 3.1749999,3.1749999 135 0 1 -3.174999,3.174999 H 3.1749999 A 3.1749999,3.1749999 45 0 1 0,13.758333 V 3.1749999 A 3.1749999,3.1749999 135 0 1 3.1749999,0 Z"
       transform="matrix(0.875,0,0,0.875,1.0583333,1.0583333)" />
  </g>
  <g
     inkscape:groupmode="layer"
     id="layer2"
     inkscape:label="LEDs">
    <path
       style="fill:#ffffff;fill-opacity:0.45;stroke:none;stroke-width:0;stroke-dasharray:none;stroke-opacity:1"
       id="rect2"
       width="1.058334"
       height="4.5076199"
       x="7.9374995"
       y="2.6458333"
       rx="0"
       inkscape:path-effect="#path-effect2"
       sodipodi:type="rect"
       ry="0"
       d="m 8.4666662,2.6458333 h 7e-7 A 0.52916666,0.52916666 45 0 1 8.9958335,3.1749999 V 6.6242865 A 0.52916666,0.52916666 135 0 1 8.4666669,7.1534531 h -7e-7 A 0.52916666,0.52916666 45 0 1 7.9374995,6.6242865 V 3.1749999 A 0.52916666,0.52916666 135 0 1 8.4666662,2.6458333 Z" />
    <path
       style="fill:#ffffff;fill-opacity:0.45;stroke:none;stroke-width:0;stroke-dasharray:none;stroke-opacity:1"
       id="rect2-2"
       width="1.0583339"
       height="4.4979162"
       x="7.937499"
       y="9.7895832"
       rx="0"
       inkscape:path-effect="#path-effect4"
       sodipodi:type="rect"
       ry="0"
       d="m 8.4666657,9.7895832 h 6e-7 A 0.52916666,0.52916666 45 0 1 8.9958329,10.31875 v 3.439583 a 0.52916666,0.52916666 135 0 1 -0.5291666,0.529166 h -6e-7 A 0.52916666,0.52916666 45 0 1 7.937499,13.758333 l 0,-3.439583 A 0.52916666,0.52916666 135 0 1 8.4666657,9.7895832 Z" />
    <path
       style="fill:#ffffff;fill-opacity:0.45;stroke:none;stroke-width:0;stroke-dasharray:none;stroke-opacity:1"
       id="rect2-2-6"
       width="1.0583318"
       height="4.4979162"
       x="-8.9958324"
       y="9.7895832"
       rx="0"
       transform="rotate(-90)"
       inkscape:path-effect="#path-effect3"
       sodipodi:type="rect"
       ry="0"
       d="m -8.4666658,9.7895832 a 0.52916592,0.52916592 45.00008 0 1 0.5291652,0.5291668 l 0,3.439583 a 0.52916666,0.52916666 135 0 1 -0.5291667,0.529166 0.52916592,0.52916592 45.00008 0 1 -0.5291651,-0.529166 V 10.31875 a 0.52916666,0.52916666 135 0 1 0.5291666,-0.5291668 z" />
    <path
       style="fill:#ffffff;fill-opacity:0.45;stroke:none;stroke-width:0;stroke-dasharray:none;stroke-opacity:1"
       id="rect2-2-6-1"
       width="1.0619556"
       height="4.4979162"
       x="-9"
       y="2.6458333"
       rx="0"
       transform="rotate(-90)"
       inkscape:path-effect="#path-effect5"
       sodipodi:type="rect"
       ry="0"
       d="m -8.4708333,2.6458333 h 0.00362 a 0.52916666,0.52916666 45 0 1 0.5291667,0.5291666 v 3.4395829 a 0.52916666,0.52916666 135 0 1 -0.5291667,0.5291667 h -0.00362 A 0.52916666,0.52916666 45 0 1 -9,6.6145828 V 3.1749999 a 0.52916666,0.52916666 135 0 1 0.5291667,-0.5291666 z" />
  </g>
</svg>
