<svg xmlns="http://www.w3.org/2000/svg" viewBox="0 0 16.933333 16.933333" width="64" height="64">
  <!-- outer teal rounded rect -->
  <path fill="#0eb8c0"
        transform="matrix(0.99843929,0,0,1.0034802,0.01321426,-0.02710968)"
        d="M 3.1749999,0 H 13.758333 a 3.1749999,3.1749999 45 0 1 3.174999,3.1749999 V 13.758333 a 3.1749999,3.1749999 135 0 1 -3.174999,3.174999 H 3.1749999 A 3.1749999,3.1749999 45 0 1 0,13.758333 V 3.1749999 A 3.1749999,3.1749999 135 0 1 3.1749999,0 Z"/>
  <!-- inner dark rounded rect -->
  <path fill="#0a1c1e"
        transform="matrix(0.875,0,0,0.875,1.0583333,1.0583333)"
        d="M 3.1749999,0 H 13.758333 a 3.1749999,3.1749999 45 0 1 3.174999,3.1749999 V 13.758333 a 3.1749999,3.1749999 135 0 1 -3.174999,3.174999 H 3.1749999 A 3.1749999,3.1749999 45 0 1 0,13.758333 V 3.1749999 A 3.1749999,3.1749999 135 0 1 3.1749999,0 Z"/>
  <!-- top LED bar -->
  <path fill="rgba(255,255,255,0.45)"
        d="m 8.4666662,2.6458333 h 7e-7 A 0.52916666,0.52916666 45 0 1 8.9958335,3.1749999 V 6.6242865 A 0.52916666,0.52916666 135 0 1 8.4666669,7.1534531 h -7e-7 A 0.52916666,0.52916666 45 0 1 7.9374995,6.6242865 V 3.1749999 A 0.52916666,0.52916666 135 0 1 8.4666662,2.6458333 Z"/>
  <!-- bottom LED bar -->
  <path fill="rgba(255,255,255,0.45)"
        d="m 8.4666657,9.7895832 h 6e-7 A 0.52916666,0.52916666 45 0 1 8.9958329,10.31875 v 3.439583 a 0.52916666,0.52916666 135 0 1 -0.5291666,0.529166 h -6e-7 A 0.52916666,0.52916666 45 0 1 7.937499,13.758333 l 0,-3.439583 A 0.52916666,0.52916666 135 0 1 8.4666657,9.7895832 Z"/>
  <!-- left LED bar -->
  <path fill="rgba(255,255,255,0.45)"
        transform="rotate(-90)"
        d="m -8.4666658,9.7895832 a 0.52916592,0.52916592 45.00008 0 1 0.5291652,0.5291668 l 0,3.439583 a 0.52916666,0.52916666 135 0 1 -0.5291667,0.529166 0.52916592,0.52916592 45.00008 0 1 -0.5291651,-0.529166 V 10.31875 a 0.52916666,0.52916666 135 0 1 0.5291666,-0.5291668 z"/>
  <!-- right LED bar -->
  <path fill="rgba(255,255,255,0.45)"
        transform="rotate(-90)"
        d="m -8.4708333,2.6458333 h 0.00362 a 0.52916666,0.52916666 45 0 1 0.5291667,0.5291666 v 3.4395829 a 0.52916666,0.52916666 135 0 1 -0.5291667,0.5291667 h -0.00362 A 0.52916666,0.52916666 45 0 1 -9,6.6145828 V 3.1749999 a 0.52916666,0.52916666 135 0 1 0.5291667,-0.5291666 z"/>
</svg>
